<svg width="54" height="56" viewBox="0 0 54 56" fill="none" xmlns="http://www.w3.org/2000/svg">
<path d="M12.0897 55.125H0.891964V18.9059H12.0897V55.125ZM6.48482 13.9652C2.90491 13.9652 0 10.9863 0 7.38984C0 3.79336 2.90491 0.875 6.48482 0.875C10.0647 0.875 12.9696 3.79336 12.9696 7.38984C12.9696 10.9863 10.0647 13.9652 6.48482 13.9652ZM54 55.125H42.8263V37.4937C42.8263 33.2918 42.742 27.9031 37.0045 27.9031C31.1826 27.9031 30.2906 32.4684 30.2906 37.191V55.125H19.1049V18.9059H29.8446V23.8465H30.0013C31.496 21.0008 35.1482 17.9977 40.5964 17.9977C51.9268 17.9977 54.0121 25.4934 54.0121 35.2293V55.125H54Z" fill="white"/>
</svg>
