<svg width="85" height="77" viewBox="0 0 85 77" fill="none" xmlns="http://www.w3.org/2000/svg">
<path d="M59.1227 35.491L60.7901 33.8055C60.7901 33.8055 63.3528 31.6045 66.2747 32.6024C71.3617 34.3391 77.2389 32.4588 81.3152 28.3774C82.4748 27.2178 83.8831 24.8912 83.8831 24.8912C84.0447 24.6705 84.1012 24.3909 84.0345 24.1241L83.719 22.8261C83.66 22.5825 83.5034 22.3746 83.288 22.2464C83.0724 22.1206 82.8133 22.0873 82.5748 22.1566L72.5624 24.9426C72.1903 25.0452 71.7927 24.9066 71.5669 24.5963L66.9674 18.2599C66.8264 18.0675 66.7673 17.8263 66.8006 17.5928L67.7268 10.8614C67.7755 10.4947 68.0372 10.197 68.3938 10.097L78.968 7.15456C79.4452 7.02108 79.7351 6.52853 79.6171 6.04371L79.1989 4.34296C79.1424 4.10178 78.9886 3.89655 78.7781 3.76833C78.7781 3.76833 77.9495 3.21931 77.3466 2.909C71.3412 -0.192537 63.7787 0.769563 58.7429 5.80778C55.0233 9.52746 53.5662 14.6223 54.2485 19.4604C54.7744 23.1801 54.5281 25.158 52.9222 26.8563C52.776 27.0076 52.3143 27.4693 51.6011 28.1697L59.1227 35.491Z" fill="white"/>
<path d="M34.7059 44.5869C23.4826 55.4613 11.2408 67.2926 11.2408 67.2926C10.8226 67.6929 10.5841 68.2444 10.5764 68.8217C10.5686 69.3963 10.797 69.953 11.2024 70.3608L16.446 75.6045C16.8564 76.0123 17.4106 76.238 17.9878 76.2305C18.5651 76.2254 19.1139 75.9842 19.5116 75.5687L42.3866 52.4269L34.7059 44.5869Z" fill="white"/>
<path d="M82.3258 70.1915C82.7337 69.7836 82.9594 69.2295 82.9519 68.6523C82.9468 68.075 82.7056 67.5261 82.29 67.1259L37.3378 23.3794L30.1216 30.5983L74.0142 75.3991C74.4145 75.8173 74.9633 76.0558 75.5406 76.0635C76.1178 76.0713 76.6719 75.8429 77.0824 75.4351L82.3258 70.1915Z" fill="white"/>
<path d="M41.7346 1.44054C36.3218 -0.670666 27.569 -0.976042 22.4999 4.09058C18.5081 8.08231 12.6695 13.9235 12.6695 13.9235C10.589 16.0014 12.5208 18.064 10.9841 19.5981C9.4475 21.1347 6.99234 19.5981 5.60977 20.9808L0.540689 26.0522C-0.18023 26.7705 -0.18023 27.9403 0.540689 28.6612L7.60309 35.7236C8.32401 36.4446 9.4938 36.4446 10.2146 35.7236L15.2836 30.6546C16.669 29.2718 15.1296 26.8168 16.669 25.2827C18.7392 23.2099 20.9993 23.5614 22.305 24.8645L24.914 27.4735L27.741 28.2174L34.9573 21.0012L34.126 18.2614C31.8249 15.9577 31.4965 13.2923 32.9383 11.8506C35.1702 9.61871 38.8566 6.3942 42.3094 5.01147C44.5103 4.13162 43.8458 1.94079 41.7346 1.44054ZM31.9454 13.0742C31.935 13.0819 32.9073 11.8788 32.9254 11.8634L31.9454 13.0742Z" fill="white"/>
</svg>
