<svg width="62" height="76" viewBox="0 0 62 76" fill="none" xmlns="http://www.w3.org/2000/svg">
<path d="M17.7001 4.54171C17.7001 2.13533 15.7493 0.18457 13.3429 0.18457C10.9365 0.18457 8.98577 2.13533 8.98577 4.54171V54.756C8.98577 57.1624 10.9365 59.1131 13.3429 59.1131C15.7493 59.1131 17.7001 57.1624 17.7001 54.756V4.54171ZM35.1286 31.3274C35.1286 28.921 33.1779 26.9703 30.7715 26.9703C28.3651 26.9703 26.4143 28.921 26.4143 31.3274V54.756C26.4143 57.1624 28.3651 59.1131 30.7715 59.1131C33.1779 59.1131 35.1286 57.1624 35.1286 54.756V31.3274ZM52.5572 15.256C52.5572 12.8496 50.6064 10.8989 48.2001 10.8989C45.7937 10.8989 43.8429 12.8496 43.8429 15.256V54.756C43.8429 57.1624 45.7937 59.1131 48.2001 59.1131C50.6064 59.1131 52.5572 57.1624 52.5572 54.756V15.256ZM4.02148 67.6846C1.95042 67.6846 0.271484 69.3635 0.271484 71.4346C0.271484 73.5056 1.95042 75.1846 4.02148 75.1846H57.5215C59.5926 75.1846 61.2715 73.5056 61.2715 71.4346C61.2715 69.3635 59.5926 67.6846 57.5215 67.6846H4.02148Z" fill="#08060B"/>
</svg>
