<svg width="55" height="62" viewBox="0 0 55 62" fill="none" xmlns="http://www.w3.org/2000/svg">
<path d="M48.8889 6.95379H36.1167C35.4744 5.18415 34.3028 3.65519 32.7612 2.57469C31.2195 1.49419 29.3826 0.914551 27.5 0.914551C25.6174 0.914551 23.7805 1.49419 22.2388 2.57469C20.6972 3.65519 19.5256 5.18415 18.8833 6.95379H6.11111C4.49034 6.95379 2.93596 7.59763 1.7899 8.74369C0.643847 9.88974 0 11.4441 0 13.0649V55.8427C0 57.4634 0.643847 59.0178 1.7899 60.1639C2.93596 61.3099 4.49034 61.9538 6.11111 61.9538H48.8889C50.5097 61.9538 52.064 61.3099 53.2101 60.1639C54.3562 59.0178 55 57.4634 55 55.8427V13.0649C55 11.4441 54.3562 9.88974 53.2101 8.74369C52.064 7.59763 50.5097 6.95379 48.8889 6.95379ZM27.5 6.95379C28.1043 6.95379 28.6951 7.13299 29.1976 7.46874C29.7001 7.80449 30.0917 8.2817 30.323 8.84003C30.5542 9.39836 30.6147 10.0127 30.4968 10.6055C30.3789 11.1982 30.0879 11.7426 29.6606 12.1699C29.2333 12.5973 28.6888 12.8883 28.0961 13.0062C27.5034 13.1241 26.889 13.0636 26.3307 12.8323C25.7724 12.601 25.2951 12.2094 24.9594 11.7069C24.6236 11.2044 24.4444 10.6137 24.4444 10.0093C24.4444 9.19896 24.7664 8.42177 25.3394 7.84874C25.9124 7.27571 26.6896 6.95379 27.5 6.95379ZM48.8889 52.7871H6.11111V40.5649H48.8889V52.7871ZM48.8889 34.4538H6.11111V22.2316H48.8889V34.4538Z" fill="url(#paint0_linear_1131_3170)"/>
<path d="M42.7782 31.3982C44.4657 31.3982 45.8338 30.0302 45.8338 28.3427C45.8338 26.6551 44.4657 25.2871 42.7782 25.2871C41.0907 25.2871 39.7227 26.6551 39.7227 28.3427C39.7227 30.0302 41.0907 31.3982 42.7782 31.3982Z" fill="url(#paint1_linear_1131_3170)"/>
<path d="M33.6112 31.3982C35.2988 31.3982 36.6668 30.0302 36.6668 28.3427C36.6668 26.6551 35.2988 25.2871 33.6112 25.2871C31.9237 25.2871 30.5557 26.6551 30.5557 28.3427C30.5557 30.0302 31.9237 31.3982 33.6112 31.3982Z" fill="url(#paint2_linear_1131_3170)"/>
<path d="M33.6112 49.7316C35.2988 49.7316 36.6668 48.3636 36.6668 46.676C36.6668 44.9885 35.2988 43.6205 33.6112 43.6205C31.9237 43.6205 30.5557 44.9885 30.5557 46.676C30.5557 48.3636 31.9237 49.7316 33.6112 49.7316Z" fill="url(#paint3_linear_1131_3170)"/>
<path d="M42.7782 49.7316C44.4657 49.7316 45.8338 48.3636 45.8338 46.676C45.8338 44.9885 44.4657 43.6205 42.7782 43.6205C41.0907 43.6205 39.7227 44.9885 39.7227 46.676C39.7227 48.3636 41.0907 49.7316 42.7782 49.7316Z" fill="url(#paint4_linear_1131_3170)"/>
<path d="M9.16699 25.2871H24.4448V31.3982H9.16699V25.2871ZM9.16699 43.6204H24.4448V49.7316H9.16699V43.6204Z" fill="url(#paint5_linear_1131_3170)"/>
<defs>
<linearGradient id="paint0_linear_1131_3170" x1="55" y1="-39.1842" x2="-14.7222" y2="25.4015" gradientUnits="userSpaceOnUse">
<stop stop-color="#DB2722"/>
<stop offset="1" stop-color="#D59B01"/>
</linearGradient>
<linearGradient id="paint1_linear_1131_3170" x1="45.8338" y1="21.2725" x2="38.8356" y2="28.467" gradientUnits="userSpaceOnUse">
<stop stop-color="#DB2722"/>
<stop offset="1" stop-color="#D59B01"/>
</linearGradient>
<linearGradient id="paint2_linear_1131_3170" x1="36.6668" y1="21.2725" x2="29.6686" y2="28.467" gradientUnits="userSpaceOnUse">
<stop stop-color="#DB2722"/>
<stop offset="1" stop-color="#D59B01"/>
</linearGradient>
<linearGradient id="paint3_linear_1131_3170" x1="36.6668" y1="39.6059" x2="29.6686" y2="46.8003" gradientUnits="userSpaceOnUse">
<stop stop-color="#DB2722"/>
<stop offset="1" stop-color="#D59B01"/>
</linearGradient>
<linearGradient id="paint4_linear_1131_3170" x1="45.8338" y1="39.6059" x2="38.8356" y2="46.8003" gradientUnits="userSpaceOnUse">
<stop stop-color="#DB2722"/>
<stop offset="1" stop-color="#D59B01"/>
</linearGradient>
<linearGradient id="paint5_linear_1131_3170" x1="24.4448" y1="9.22871" x2="-1.02591" y2="25.5943" gradientUnits="userSpaceOnUse">
<stop stop-color="#DB2722"/>
<stop offset="1" stop-color="#D59B01"/>
</linearGradient>
</defs>
</svg>
